<svg width="32" height="32" viewBox="0 0 32 32" fill="none" xmlns="http://www.w3.org/2000/svg">
<circle cx="15.5563" cy="15.5563" r="11" transform="rotate(-45 15.5563 15.5563)" fill="#606060"/>
<path d="M16.2184 14.1987L17.8307 12.5865C17.9367 12.6077 18.0675 12.6607 18.2231 12.7456C18.3716 12.8234 18.5095 12.9259 18.6368 13.0532C18.8701 13.2865 18.9797 13.5093 18.9656 13.7214C18.9585 13.9265 18.8666 14.1174 18.6898 14.2942L17.5018 15.4821L19.3686 17.3489C19.3191 17.4408 19.2378 17.5645 19.1247 17.7201C19.0115 17.8615 18.8948 17.9923 18.7746 18.1125C18.513 18.3742 18.2726 18.5297 18.0534 18.5792C17.8271 18.6216 17.5726 18.5014 17.2897 18.2186L16.0275 16.9564L14.3729 18.611C14.2598 18.5828 14.1325 18.5333 13.9911 18.4625C13.8567 18.3848 13.7259 18.2822 13.5986 18.155C13.3653 17.9216 13.2486 17.6989 13.2486 17.4867C13.2557 17.2675 13.3476 17.0695 13.5244 16.8928L14.7441 15.673L12.9092 13.8381C12.9658 13.7532 13.0471 13.6365 13.1531 13.488C13.2521 13.3325 13.3653 13.1911 13.4926 13.0638C13.74 12.8163 13.9805 12.6678 14.2138 12.6183C14.4471 12.5688 14.7052 12.6855 14.9881 12.9683L16.2184 14.1987Z" fill="white"/>
</svg>
